<svg width="128" height="24" viewBox="0 0 128 24" fill="none" xmlns="http://www.w3.org/2000/svg">
<g clip-path="url(#clip0_6902_366)">
<path d="M69.5034 0H58.4966C54.9143 0 52 2.9143 52 6.49657V17.5036C52 21.0856 54.9143 24 58.4966 24H69.5036C73.0856 24 76 21.0856 76 17.5036V6.49657C76 2.9143 73.0856 0 69.5034 0V0ZM64 18.5623C60.3815 18.5623 57.4377 15.6185 57.4377 12C57.4377 8.38145 60.3815 5.43767 64 5.43767C67.6185 5.43767 70.5623 8.38145 70.5623 12C70.5623 15.6185 67.6185 18.5623 64 18.5623ZM70.7192 6.98528C69.6499 6.98528 68.7801 6.11553 68.7801 5.04619C68.7801 3.97686 69.6499 3.10693 70.7192 3.10693C71.7885 3.10693 72.6585 3.97686 72.6585 5.04619C72.6585 6.11553 71.7885 6.98528 70.7192 6.98528Z" fill="white"/>
<path d="M63.9999 6.84467C61.1574 6.84467 58.8446 9.15728 58.8446 12C58.8446 14.8425 61.1574 17.1553 63.9999 17.1553C66.8426 17.1553 69.1553 14.8425 69.1553 12C69.1553 9.15728 66.8426 6.84467 63.9999 6.84467Z" fill="white"/>
<path d="M70.7192 4.5141C70.4259 4.5141 70.1871 4.75287 70.1871 5.0462C70.1871 5.33954 70.4259 5.57831 70.7192 5.57831C71.0128 5.57831 71.2515 5.33972 71.2515 5.0462C71.2515 4.75268 71.0128 4.5141 70.7192 4.5141Z" fill="white"/>
</g>
<g clip-path="url(#clip1_6902_366)">
<path d="M114.025 15.181L113.644 20.765C114.188 20.765 114.424 20.521 114.707 20.228L117.259 17.683L122.547 21.724C123.517 22.288 124.2 21.991 124.462 20.793L127.933 3.82104L127.934 3.82004C128.241 2.32404 127.415 1.73904 126.47 2.10604L106.068 10.257C104.675 10.821 104.696 11.631 105.831 11.998L111.047 13.691L123.163 5.78004C123.733 5.38604 124.252 5.60404 123.825 5.99804L114.025 15.181Z" fill="white"/>
</g>
<g clip-path="url(#clip2_6902_366)">
<path d="M15.997 3.985H18.188V0.169C17.81 0.117 16.51 0 14.996 0C11.837 0 9.67301 1.987 9.67301 5.639V9H6.18701V13.266H9.67301V24H13.947V13.267H17.292L17.823 9.001H13.946V6.062C13.947 4.829 14.279 3.985 15.997 3.985Z" fill="white"/>
</g>
<defs>
<clipPath id="clip0_6902_366">
<rect width="24" height="24" fill="white" transform="translate(52)"/>
</clipPath>
<clipPath id="clip1_6902_366">
<rect width="23" height="24" fill="white" transform="translate(105)"/>
</clipPath>
<clipPath id="clip2_6902_366">
<rect width="24" height="24" fill="white"/>
</clipPath>
</defs>
</svg>
